# This file uses centimeters as units for non-parametric coordinates.

mtllib ceiling.mtl
g default
v -1.360616 0.000000 7.565035
v 4.884160 0.000000 7.565035
v -1.360616 0.075382 7.565035
v 4.884160 0.075382 7.565035
v -1.360616 0.075382 1.588977
v 4.884160 0.075382 1.588977
v -1.360616 0.000000 1.588977
v 4.884160 0.000000 1.588977
v 1.192264 0.075382 3.382327
v 1.192264 0.000000 3.382327
v 1.192264 0.000000 1.588977
v 1.192264 0.075382 1.588977
v 2.213234 0.075382 3.382327
v 2.213234 0.000000 3.382327
v 2.213234 0.000000 1.588977
v 2.213234 0.075382 1.588977
v 2.213234 0.000000 2.212159
v 2.213234 0.075382 2.212159
v 1.191802 0.000000 1.588977
v 1.191802 0.075382 1.588977
v 1.191802 0.000000 2.212159
v 1.191802 0.075382 2.212159
vt 0.375000 0.000000
vt 0.625000 0.000000
vt 0.000056 -0.000953
vt 0.625000 0.250000
vt 0.375000 0.569219
vt 0.492022 0.543019
vt 0.534787 0.565958
vt 0.625000 0.750000
vt 0.534787 1.001162
vt 0.966496 1.001162
vt 0.842035 0.000000
vt 0.842035 0.319896
vt 0.157965 0.000000
vt 0.157965 0.319219
vt 0.492022 -0.000953
vt 0.625000 0.569896
vt 0.375000 0.250000
vt 0.000056 0.542342
vt 0.966496 0.565958
vt 0.375000 0.750000
vt 0.184859 0.401117
vt 0.696955 0.632059
vt 0.696955 0.499856
vt 0.468911 0.750000
vt 0.468911 0.500000
vt 0.184859 0.545128
vt 0.263850 0.401117
vt 0.820527 0.632059
vt 0.820527 0.499856
vt 0.540470 0.750000
vt 0.476542 0.500000
vt 0.261751 0.545128
vt 0.820527 0.536132
vt 0.262327 0.505613
vt 0.261751 0.545128
vt 0.820527 0.499856
vt 0.820527 0.536132
vt 0.262327 0.505613
vn 0.000000 0.000000 1.000000
vn 0.000000 0.000000 1.000000
vn 0.000000 0.000000 1.000000
vn 0.000000 0.000000 1.000000
vn -0.000000 1.000000 -0.000000
vn -0.000000 1.000000 0.000000
vn -0.000000 1.000000 -0.000000
vn 0.000000 1.000000 0.000000
vn 0.000000 1.000000 0.000000
vn 0.000000 1.000000 -0.000000
vn 0.000000 1.000000 -0.000000
vn 0.000000 1.000000 -0.000000
vn 0.000000 1.000000 0.000000
vn 0.000000 0.000000 -1.000000
vn 0.000000 0.000000 -1.000000
vn 0.000000 0.000000 -1.000000
vn 0.000000 0.000000 -1.000000
vn 0.000000 -1.000000 0.000000
vn 0.000000 -1.000000 0.000000
vn 0.000000 -1.000000 0.000000
vn 0.000000 -1.000000 0.000000
vn 0.000000 -1.000000 0.000000
vn 0.000000 -1.000000 0.000000
vn 0.000000 -1.000000 -0.000000
vn 0.000000 -1.000000 0.000000
vn 0.000000 -1.000000 0.000000
vn 1.000000 0.000000 0.000000
vn 1.000000 0.000000 0.000000
vn 1.000000 0.000000 0.000000
vn 1.000000 0.000000 0.000000
vn -1.000000 0.000000 0.000000
vn -1.000000 0.000000 0.000000
vn -1.000000 0.000000 0.000000
vn -1.000000 0.000000 0.000000
vn -0.000000 0.000000 -1.000000
vn -0.000000 0.000000 -1.000000
vn -0.000000 0.000000 -1.000000
vn 0.000000 0.000000 -1.000000
vn 0.000000 0.000000 -1.000000
vn 0.000000 0.000000 -1.000000
vn 0.000000 0.000000 -1.000000
vn 0.000000 0.000000 -1.000000
vn 1.000000 0.000000 0.000000
vn 1.000000 0.000000 0.000000
vn 1.000000 0.000000 0.000000
vn 1.000000 0.000000 0.000000
vn -1.000000 0.000000 0.000000
vn -1.000000 0.000000 0.000000
vn -1.000000 0.000000 0.000000
vn -1.000000 0.000000 0.000000
vn -1.000000 0.000000 0.000000
vn -1.000000 0.000000 0.000000
vn -1.000000 0.000000 0.000000
vn -1.000000 0.000000 0.000000
vn 0.000000 0.000000 -1.000000
vn 0.000000 0.000000 -1.000000
vn 0.000000 0.000000 -1.000000
vn 0.000000 0.000000 -1.000000
vn 0.000000 -1.000000 0.000000
vn 0.000000 -1.000000 0.000000
vn 0.000000 -1.000000 0.000000
vn 0.000000 -1.000000 0.000000
vn 0.000000 0.000000 1.000000
vn 0.000000 0.000000 1.000000
vn 0.000000 0.000000 1.000000
vn 0.000000 0.000000 1.000000
vn 0.000000 1.000000 0.000000
vn 0.000000 1.000000 0.000000
vn 0.000000 1.000000 0.000000
vn 0.000000 1.000000 0.000000
s 1
g pCube1
usemtl initialShadingGroup
f 2/2/1 4/4/2 1/1/3
f 1/1/3 4/4/2 3/17/4
s 2
usemtl phong2SG
f 5/18/5 3/3/6 12/26/7
f 12/26/7 3/3/6 9/21/8
f 3/3/6 4/15/9 9/21/8
f 9/21/8 4/15/9 13/27/10
f 6/6/11 16/32/12 4/15/9
f 16/32/12 18/34/13 4/15/9
f 4/15/9 18/34/13 13/27/10
s 4
usemtl initialShadingGroup
f 16/31/14 6/16/15 15/30/16
f 15/30/16 6/16/15 8/8/17
s 5
usemtl phong2SG
f 8/19/18 2/10/19 15/29/20
f 15/29/20 2/10/19 17/33/21
f 17/33/21 2/10/19 14/28/22
f 2/10/19 1/9/23 14/28/22
f 14/28/22 1/9/23 10/22/24
f 7/7/25 11/23/26 1/9/23
f 1/9/23 11/23/26 10/22/24
s 6
usemtl initialShadingGroup
f 2/2/27 8/11/28 4/4/29
f 4/4/29 8/11/28 6/12/30
s 7
f 7/13/31 1/1/32 5/14/33
f 5/14/33 1/1/32 3/17/34
s 8
f 5/5/35 12/25/36 7/20/37
f 7/20/37 12/25/36 11/24/38
s 9
f 13/27/39 14/28/40 9/21/41
f 9/21/41 14/28/40 10/22/42
s 10
f 9/21/43 10/22/44 12/26/45
f 12/26/45 10/22/44 11/23/46
s 11
f 20/35/47 19/36/48 22/38/49
f 22/38/49 19/36/48 21/37/50
s 12
f 18/34/51 17/33/52 13/27/53
f 13/27/53 17/33/52 14/28/54
s 13
f 16/32/55 15/29/56 20/35/57
f 20/35/57 15/29/56 19/36/58
s 14
f 15/29/59 17/33/60 19/36/61
f 19/36/61 17/33/60 21/37/62
s 15
f 17/33/63 18/34/64 21/37/65
f 21/37/65 18/34/64 22/38/66
s 16
f 18/34/67 16/32/68 22/38/69
f 22/38/69 16/32/68 20/35/70
