# This file uses centimeters as units for non-parametric coordinates.

mtllib exit_door.mtl
g default
v 2.079263 2.644886 0.518563
v 6.003656 2.644886 0.518563
v 2.079263 4.904506 0.518563
v 6.003656 4.904506 0.518563
v 2.079263 4.904506 0.495173
v 6.003656 4.904506 0.495173
v 2.079263 2.644886 0.495173
v 6.003656 2.644886 0.495173
vt 0.375000 0.000000
vt 0.625000 0.000000
vt 0.375000 0.250000
vt 0.625000 0.250000
vt 1.009852 1.003597
vt 0.625000 0.500000
vt 0.375000 0.750000
vt 0.000788 -0.003630
vt 0.375000 1.000000
vt 0.625000 1.000000
vt 0.875000 0.000000
vt 0.875000 0.250000
vt 0.125000 0.000000
vt 0.125000 0.250000
vt 1.007102 0.000000
vt -0.000703 0.000000
vt -0.000703 1.000000
vt 1.007102 1.000000
vt 0.000788 1.003597
vt 0.625000 0.750000
vt 0.375000 0.500000
vt 1.009852 -0.003630
vn 0.000000 0.000000 1.000000
vn 0.000000 0.000000 1.000000
vn 0.000000 0.000000 1.000000
vn 0.000000 0.000000 1.000000
vn 0.000000 1.000000 0.000000
vn 0.000000 1.000000 0.000000
vn 0.000000 1.000000 0.000000
vn 0.000000 1.000000 0.000000
vn 0.000000 0.000000 -1.000000
vn 0.000000 0.000000 -1.000000
vn 0.000000 0.000000 -1.000000
vn 0.000000 0.000000 -1.000000
vn 0.000000 -1.000000 0.000000
vn 0.000000 -1.000000 0.000000
vn 0.000000 -1.000000 0.000000
vn 0.000000 -1.000000 0.000000
vn 1.000000 0.000000 0.000000
vn 1.000000 0.000000 0.000000
vn 1.000000 0.000000 0.000000
vn 1.000000 0.000000 0.000000
vn -1.000000 0.000000 0.000000
vn -1.000000 0.000000 0.000000
vn -1.000000 0.000000 0.000000
vn -1.000000 0.000000 0.000000
s 1
g pCube1
usemtl phong1SG
f 1/15/1 2/16/2 3/18/3
f 3/18/3 2/16/2 4/17/4
s 2
f 3/3/5 4/4/6 5/21/7
f 5/21/7 4/4/6 6/6/8
s 3
f 5/5/9 6/19/10 7/22/11
f 7/22/11 6/19/10 8/8/12
s 4
f 7/7/13 8/20/14 1/9/15
f 1/9/15 8/20/14 2/10/16
s 5
f 2/2/17 8/11/18 4/4/19
f 4/4/19 8/11/18 6/12/20
s 6
f 7/13/21 1/1/22 5/14/23
f 5/14/23 1/1/22 3/3/24
