# This file uses centimeters as units for non-parametric coordinates.

mtllib lift.mtl
g default
v -4.744672 0.000000 4.120376
v 4.774352 0.000000 4.120376
v -4.744672 9.395232 4.120376
v 4.774352 9.395232 4.120376
v -4.744672 9.395232 -3.912627
v 5.108727 9.395232 -3.912627
v -4.744672 0.000000 -3.912627
v 5.108727 0.000000 -3.912627
v -3.954217 9.395232 4.120376
v -3.954217 9.395232 -3.912627
v -3.954217 0.000000 -3.912627
v -3.954217 0.000000 4.120376
v 3.987813 9.395232 4.120376
v 3.987813 9.395232 -3.912627
v 3.987813 0.000000 -3.912627
v 3.987813 0.000000 4.120376
v 4.774352 0.171880 4.120376
v 3.987813 0.171880 4.120376
v -3.954217 0.171880 4.120376
v -4.744672 0.171880 4.120376
v -4.744672 0.171880 -3.912627
v -3.954217 0.171880 -3.912627
v 3.987813 0.171880 -3.912627
v 5.108727 0.171880 -3.912627
v 4.774352 8.392362 4.120376
v 3.987813 8.392362 4.120376
v -3.954217 8.392362 4.120376
v -4.744672 8.392362 4.120376
v -4.744672 8.392362 -3.912627
v -3.954217 8.392362 -3.912627
v 3.987813 8.392362 -3.912627
v 5.108727 8.392362 -3.912627
v -3.954217 0.171880 -3.639649
v -3.954217 8.392362 -3.639649
v 3.987813 0.171880 -3.639649
v 3.987813 8.392362 -3.639649
vt 0.519577 0.060589
vt 0.534837 0.060589
vt 0.534837 0.068008
vt 0.519577 0.068008
vt 0.501286 0.480992
vt 0.518963 0.480992
vt 0.504716 0.065141
vt 0.522392 0.063400
vt 0.529870 0.488399
vt 0.512193 0.490140
vt 0.527008 0.072021
vt 0.713061 0.072021
vt 0.515576 0.054301
vt 0.710774 0.054301
vt 0.688160 0.060589
vt 0.518963 0.488997
vt 0.699998 0.045910
vt 0.688160 0.068008
vt 0.707475 0.470909
vt 0.703344 0.060589
vt 0.501286 0.488997
vt 0.725064 0.043441
vt 0.703344 0.068008
vt 0.725064 0.469177
vt 0.688160 0.422844
vt 0.562500 0.125000
vt 0.737354 0.938840
vt 0.703344 0.422844
vt 0.710774 0.062264
vt 0.696568 0.480992
vt 0.975422 0.466133
vt 0.768791 0.466133
vt 0.696568 0.488997
vt 0.713061 0.078770
vt 0.534837 0.422844
vt 0.562500 0.187500
vt 0.737354 0.572163
vt 0.519577 0.422844
vt 0.515576 0.062264
vt 0.721635 0.480992
vt 0.768791 0.060589
vt 0.975422 0.060589
vt 0.721635 0.488997
vt 0.527008 0.078770
vt 0.776222 0.462132
vt 0.776222 0.081738
vt 0.562500 0.125000
vt 0.562500 0.187500
vt 0.468865 0.543566
vt 0.468865 1.000495
vt 0.001280 1.000495
vt 0.001280 0.543566
vt 0.014290 0.044013
vt 0.454130 0.044013
vt 0.454130 0.492998
vt 0.014290 0.492998
vt 0.710774 0.443107
vt 0.515576 0.443107
vt 0.710774 0.489569
vt 0.515576 0.489569
vt 0.525531 0.065733
vt 0.538256 0.067287
vt 0.532873 0.446605
vt 0.520149 0.445051
vt 0.666104 0.082897
vt 0.660721 0.462215
vt 0.678765 0.084443
vt 0.678765 0.464418
vt 0.713061 0.401599
vt 0.527008 0.401599
vt 0.713061 0.440983
vt 0.527008 0.440983
vt 0.501286 0.098149
vt 0.518963 0.098149
vt 0.696568 0.098149
vt 0.721635 0.098149
vt 0.501286 0.051443
vt 0.518963 0.051443
vt 0.696568 0.051443
vt 0.721635 0.051443
vt 0.688160 0.466133
vt 0.703344 0.466133
vt 0.534837 0.466133
vt 0.519577 0.466133
vt 0.941698 0.572163
vt 0.941698 0.938840
vt 0.971420 0.081738
vt 0.971420 0.462132
vn 0.000000 0.000000 1.000000
vn 0.000000 0.000000 1.000000
vn 0.000000 0.000000 1.000000
vn 0.000000 0.000000 1.000000
vn 0.000000 1.000000 0.000000
vn 0.000000 1.000000 0.000000
vn 0.000000 1.000000 0.000000
vn 0.000000 1.000000 0.000000
vn 0.000000 0.000000 -1.000000
vn 0.000000 0.000000 -1.000000
vn 0.000000 0.000000 -1.000000
vn 0.000000 0.000000 -1.000000
vn 0.000000 -1.000000 0.000000
vn 0.000000 -1.000000 0.000000
vn 0.000000 -1.000000 0.000000
vn 0.000000 -1.000000 0.000000
vn 0.999135 0.000000 0.041589
vn 0.999135 0.000000 0.041589
vn 0.999135 0.000000 0.041589
vn 0.999135 0.000000 0.041589
vn -1.000000 0.000000 0.000000
vn -1.000000 0.000000 0.000000
vn -1.000000 0.000000 0.000000
vn -1.000000 0.000000 0.000000
vn 0.000000 1.000000 -0.000000
vn 0.000000 1.000000 -0.000000
vn 0.000000 0.000000 -1.000000
vn 0.000000 0.000000 -1.000000
vn 0.000000 -1.000000 -0.000000
vn 0.000000 -1.000000 -0.000000
vn 0.000000 0.000000 1.000000
vn 0.000000 0.000000 1.000000
vn 0.000000 1.000000 -0.000000
vn 0.000000 1.000000 -0.000000
vn 0.000000 0.000000 -1.000000
vn 0.000000 0.000000 -1.000000
vn 0.000000 -1.000000 -0.000000
vn 0.000000 -1.000000 -0.000000
vn 0.000000 0.000000 1.000000
vn 0.000000 0.000000 1.000000
vn 0.000000 0.000000 1.000000
vn 0.000000 0.000000 1.000000
vn 0.000000 0.000000 1.000000
vn 0.000000 0.000000 1.000000
vn 0.000000 0.000000 1.000000
vn 0.000000 0.000000 1.000000
vn 0.000000 0.000000 1.000000
vn 0.000000 0.000000 1.000000
vn -1.000000 0.000000 0.000000
vn -1.000000 0.000000 0.000000
vn 0.000000 0.000000 -1.000000
vn 0.000000 0.000000 -1.000000
vn 0.000000 0.000000 -1.000000
vn 0.000000 0.000000 -1.000000
vn 0.999135 0.000000 0.041589
vn 0.999135 0.000000 0.041589
vn 0.000000 0.000000 1.000000
vn 0.000000 0.000000 1.000000
vn 0.000000 0.000000 1.000000
vn 0.000000 0.000000 1.000000
vn -1.000000 0.000000 0.000000
vn -1.000000 0.000000 0.000000
vn 0.000000 0.000000 -1.000000
vn 0.000000 0.000000 -1.000000
vn 0.000000 0.000000 -1.000000
vn 0.000000 0.000000 -1.000000
vn 0.999135 0.000000 0.041589
vn 0.999135 0.000000 0.041589
vn 1.000000 0.000000 0.000000
vn 1.000000 0.000000 0.000000
vn 1.000000 0.000000 0.000000
vn 1.000000 0.000000 0.000000
vn 0.000000 1.000000 0.000000
vn 0.000000 1.000000 0.000000
vn 0.000000 1.000000 0.000000
vn 0.000000 1.000000 0.000000
vn -1.000000 0.000000 0.000000
vn -1.000000 0.000000 0.000000
vn -1.000000 0.000000 0.000000
vn -1.000000 0.000000 0.000000
vn 0.000000 -1.000000 0.000000
vn 0.000000 -1.000000 0.000000
vn 0.000000 -1.000000 0.000000
vn 0.000000 -1.000000 0.000000
s 1
g pCube1
usemtl lambert2SG
f 1/1/1 12/2/2 19/3/3 20/4/4
s 2
f 3/61/5 9/62/6 10/63/7 5/64/8
s 3
f 21/5/9 22/6/10 11/16/11 7/21/12
s 4
f 7/7/13 11/8/14 12/9/15 1/10/16
s 5
f 2/11/17 8/12/18 24/34/19 17/44/20
s 6
f 7/13/21 1/14/22 20/29/23 21/39/24
s 2
f 9/62/6 13/65/25 14/66/26 10/63/7
s 3
f 11/16/11 22/6/10 23/30/27 15/33/28
s 4
f 12/9/15 11/8/14 15/17/29 16/19/30
s 1
f 19/3/3 12/2/2 16/15/31 18/18/32
s 2
f 13/65/25 4/67/33 6/68/34 14/66/26
s 3
f 15/33/28 23/30/27 24/40/35 8/43/36
s 4
f 16/19/30 15/17/29 8/22/37 2/24/38
s 1
f 18/18/32 16/15/31 2/20/39 17/23/40
f 26/25/41 18/18/32 17/23/40 25/28/42
s off
f 34/45/43 33/46/44 35/87/45 36/88/46
s 1
f 20/4/4 19/3/3 27/35/47 28/38/48
s 6
f 21/39/24 20/29/23 28/57/49 29/58/50
s 3
f 29/73/51 30/74/52 22/6/10 21/5/9
f 23/31/27 22/32/10 30/41/52 31/42/53
f 24/40/35 23/30/27 31/75/53 32/76/54
s 5
f 17/44/20 24/34/19 32/69/55 25/70/56
s 1
f 13/81/57 26/25/41 25/28/42 4/82/58
f 9/83/59 27/35/47 26/25/41 13/81/57
f 28/38/48 27/35/47 9/83/59 3/84/60
s 6
f 29/58/50 28/57/49 3/59/61 5/60/62
s 3
f 5/77/63 10/78/64 30/74/52 29/73/51
f 31/75/53 30/74/52 10/78/64 14/79/65
f 32/76/54 31/75/53 14/79/65 6/80/66
s 5
f 25/70/56 32/69/55 6/71/67 4/72/68
s off
f 27/27/69 19/37/70 33/85/71 34/86/72
f 19/53/73 18/54/74 35/55/75 33/56/76
f 18/26/77 26/36/78 36/48/79 35/47/80
f 26/49/81 27/50/82 34/51/83 36/52/84
