# This file uses centimeters as units for non-parametric coordinates.

mtllib lodin.mtl
g default
v 0.186573 0.764431 -0.241022
v 0.286304 0.740195 -0.128010
v 0.280017 0.740735 -0.169654
v 0.258856 0.745530 -0.205754
v 0.226043 0.753851 -0.230815
v 0.105361 0.083303 -0.109202
v 0.005630 0.107539 -0.222214
v 0.045100 0.096959 -0.212007
v 0.077914 0.088638 -0.186946
v 0.099075 0.083843 -0.150845
v -0.202387 0.164538 -0.232681
v -0.310631 0.197290 -0.130134
v -0.301087 0.193492 -0.170981
v -0.277164 0.185933 -0.204813
v -0.242506 0.175766 -0.226479
v -0.061563 0.832658 -0.245287
v -0.096222 0.842826 -0.223621
v -0.120144 0.850384 -0.189789
v -0.129689 0.854182 -0.148942
v -0.021445 0.821430 -0.251489
v -0.133276 0.014115 -0.202610
v 0.135724 0.959926 -0.216176
v 0.279219 0.748242 0.084880
v 0.098276 0.091350 0.103688
v 0.154344 0.879053 -0.287225
v 0.121228 0.895739 -0.279498
v 0.068121 0.902529 -0.291500
v -0.062352 0.058929 -0.257548
v -0.166152 0.087568 -0.262678
v -0.120114 0.049818 -0.272291
v -0.075434 0.848412 0.171495
v -0.035844 0.837785 0.181176
v 0.051070 0.921894 0.220815
v 0.104840 0.914352 0.212912
v -0.137614 0.069693 0.253507
v -0.182817 0.106494 0.238039
v -0.216787 0.180892 0.199984
v -0.256377 0.191520 0.190303
v -0.289495 0.199938 0.165679
v -0.108552 0.856830 0.146871
v 0.137328 0.898380 0.224057
v 0.172265 0.780681 0.188871
v 0.212299 0.769460 0.182135
v 0.246683 0.759355 0.160006
v 0.065741 0.102463 0.178814
v 0.031357 0.112568 0.200943
v -0.008678 0.123788 0.207679
v -0.078977 0.077811 0.241986
v 0.089240 0.095013 0.144663
v 0.270182 0.751905 0.125855
v -0.146210 0.028804 0.185997
v -0.130157 0.861755 0.111051
v -0.311099 0.204863 0.129860
v -0.317901 0.205547 0.088299
v 0.123669 0.973617 0.146033
vt 0.105045 0.880551
vt 0.051935 0.880551
vt 0.574301 0.019960
vt 0.007046 0.880551
vt 0.007046 0.271768
vt 0.051935 0.271768
vt 0.105045 0.271768
vt 0.386595 0.271768
vt 0.439706 0.271768
vt 0.484594 0.271768
vt 0.484594 0.880551
vt 0.439706 0.880551
vt 0.848592 0.019960
vt 0.901816 0.019960
vt 0.947073 0.019960
vt 0.947073 0.980040
vt 0.901816 0.980040
vt 0.848592 0.980040
vt 0.574301 0.980040
vt 0.521077 0.980040
vt 0.475820 0.980040
vt 0.475820 0.019960
vt 0.521077 0.019960
vt 0.409436 0.859939
vt 0.360872 0.859939
vt 0.286678 0.899251
vt 0.223897 0.902007
vt 0.234163 0.566449
vt 0.297482 0.575565
vt 0.360872 0.599881
vt 0.409436 0.599881
vt 0.450731 0.599881
vt 0.450731 0.859939
vt 0.181637 0.899307
vt 0.107337 0.859939
vt 0.058897 0.859939
vt 0.017956 0.859939
vt 0.017955 0.599881
vt 0.058897 0.599881
vt 0.107337 0.599881
vt 0.170912 0.575494
vt 0.104220 0.554340
vt 0.075430 0.554340
vt 0.075430 0.319609
vt 0.104220 0.319609
vt 0.138078 0.319609
vt 0.182272 0.297661
vt 0.226801 0.282056
vt 0.235042 0.591918
vt 0.189804 0.589823
vt 0.138078 0.554340
vt 0.268968 0.589425
vt 0.277578 0.290409
vt 0.328617 0.312928
vt 0.367505 0.312928
vt 0.400373 0.312928
vt 0.400373 0.553072
vt 0.367505 0.553072
vt 0.328617 0.553072
vt 0.226417 0.289433
vt 0.233574 0.592311
vt 0.171330 0.271386
vt 0.135468 0.260415
vt 0.105251 0.230181
vt 0.085280 0.185290
vt 0.078596 0.132575
vt 0.049250 0.063670
vt 0.038628 -0.005071
vt 0.098409 -0.004385
vt 0.437094 -0.002800
vt 0.496879 -0.002926
vt 0.485641 0.065712
vt 0.455677 0.134340
vt 0.448519 0.186990
vt 0.428147 0.231693
vt 0.397660 0.261641
vt 0.361701 0.272278
vt 0.422114 0.005264
vt 0.478772 0.005684
vt 0.467925 0.076689
vt 0.439164 0.148060
vt 0.432167 0.202439
vt 0.412678 0.248401
vt 0.383665 0.278947
vt 0.349544 0.289428
vt 0.173702 0.289428
vt 0.139582 0.278947
vt 0.110569 0.248401
vt 0.091080 0.202439
vt 0.084082 0.148060
vt 0.055322 0.076689
vt 0.044475 0.005684
vt 0.101133 0.005264
vt 0.153727 0.291647
vt 0.316802 0.291647
vt 0.348446 0.291647
vt 0.375352 0.291647
vt 0.393426 0.291647
vt 0.399916 0.291647
vt 0.431088 0.477978
vt 0.423860 0.490756
vt 0.373992 0.606254
vt 0.096537 0.606254
vt 0.046669 0.490755
vt 0.039441 0.477978
vt 0.070613 0.291647
vt 0.077102 0.291647
vt 0.095176 0.291647
vt 0.122083 0.291647
vt 0.071313 0.586484
vt 0.013461 0.586962
vt 0.004617 0.509120
vt 0.040008 0.417127
vt 0.047065 0.356912
vt 0.067632 0.305711
vt 0.098580 0.271318
vt 0.135195 0.258970
vt 0.365919 0.271318
vt 0.396867 0.305711
vt 0.417435 0.356912
vt 0.424492 0.417127
vt 0.459882 0.509120
vt 0.451038 0.586962
vt 0.393186 0.586484
vn 0.042043 -0.020505 -0.998905
vn -0.254037 0.057436 -0.965488
vn 0.039270 -0.047327 -0.998107
vn -0.019907 -0.029621 -0.999363
vn -0.415186 0.088440 -0.905428
vn -0.388895 0.080846 -0.917728
vn -0.332216 0.064567 -0.940991
vn -0.332216 0.064567 -0.940991
vn -0.653285 0.158753 -0.740281
vn -0.653285 0.158753 -0.740281
vn 0.340073 -0.108456 -0.934124
vn 0.106318 -0.063998 -0.992270
vn 0.482847 -0.157665 -0.861395
vn 0.457990 -0.151236 -0.875998
vn 0.405074 -0.137459 -0.903892
vn 0.405074 -0.137459 -0.903892
vn 0.709048 -0.214542 -0.671731
vn 0.709048 -0.214542 -0.671731
vn 0.905076 -0.258963 -0.337305
vn 0.905076 -0.258963 -0.337305
vn 0.964116 -0.265258 0.010849
vn 0.964116 -0.265258 0.010849
vn 0.962041 -0.262900 0.073221
vn 0.962041 -0.262900 0.073221
vn 0.880031 -0.230518 0.415219
vn 0.880031 -0.230518 0.415219
vn 0.662343 -0.161497 0.731587
vn 0.662344 -0.161497 0.731587
vn 0.242558 -0.881229 -0.405711
vn 0.508458 -0.859908 -0.045040
vn 0.556031 -0.830287 0.038116
vn 0.212873 -0.847514 0.486215
vn 0.359737 -0.924002 0.129649
vn 0.364215 -0.835144 0.412168
vn 0.368715 -0.928601 -0.041837
vn -0.140263 -0.962492 -0.232239
vn -0.048425 -0.981255 -0.186531
vn 0.057245 -0.991091 -0.120255
vn 0.221670 -0.975081 0.008890
vn 0.271083 -0.958723 0.085814
vn 0.569084 -0.409532 0.713041
vn -0.265460 -0.963727 0.027595
vn -0.265461 -0.963727 0.027593
vn -0.265461 -0.963727 0.027593
vn -0.874897 0.228771 -0.426870
vn -0.874897 0.228771 -0.426870
vn -0.961338 0.271161 -0.047969
vn -0.961952 0.262836 -0.074603
vn -0.963500 0.267654 -0.005447
vn -0.958802 0.275507 0.069240
vn -0.900732 0.258112 0.349370
vn -0.700594 0.212484 0.681189
vn -0.700593 0.212484 0.681190
vn -0.265647 -0.963494 0.033319
vn 0.266786 0.963362 -0.027536
vn 0.265454 0.963734 -0.027395
vn 0.266873 0.963338 -0.027532
vn 0.265461 0.963726 -0.027602
vn 0.265461 0.963727 -0.027594
vn -0.602800 0.752780 -0.264489
vn 0.265461 0.963727 -0.027593
vn 0.265461 0.963727 -0.027593
vn -0.091454 0.995749 0.010997
vn -0.371557 0.917480 -0.142045
vn 0.103878 0.984045 0.144450
vn 0.179744 0.969088 0.169001
vn -0.516512 0.856272 0.003680
vn -0.457179 0.888036 -0.048783
vn 0.265461 0.963726 -0.027602
vn 0.925773 0.284467 -0.249045
vn 0.265461 0.963727 -0.027589
vn 0.265461 0.963727 -0.027593
vn 0.265461 0.963727 -0.027593
vn 0.694196 0.719184 -0.029431
vn 0.842905 0.526632 -0.110316
vn 0.498152 0.858114 0.124438
vn 0.403764 0.901148 0.157821
vn 0.328308 0.928001 0.176145
vn 0.879739 0.471098 0.064225
vn 0.892279 0.451308 0.012637
vn -0.621137 -0.643643 -0.447116
vn -0.903654 -0.427477 -0.025935
vn -0.869954 -0.480404 -0.111320
vn -0.651066 -0.609650 0.452150
vn -0.767279 -0.523564 0.370357
vn -0.787292 -0.611360 0.080063
vn -0.784387 -0.613160 -0.093655
vn -0.347826 -0.905905 -0.241564
vn -0.439383 -0.874722 -0.204461
vn -0.539495 -0.828825 -0.148305
vn -0.684465 -0.728335 -0.032181
vn -0.726162 -0.686224 0.042248
vn -0.745446 -0.044423 0.665084
vn -0.265461 -0.963727 0.027594
vn -0.265460 -0.963727 0.027592
vn -0.265461 -0.963727 0.027595
vn -0.024423 0.054984 0.998188
vn -0.027205 0.028172 0.999233
vn -0.317434 0.129440 0.939404
vn -0.086290 0.045773 0.995218
vn -0.474162 0.155422 0.866611
vn -0.448764 0.148843 0.881168
vn -0.393797 0.134508 0.909303
vn -0.393797 0.134508 0.909303
vn 0.277028 -0.036853 0.960155
vn 0.040041 0.011276 0.999134
vn 0.424193 -0.091048 0.900983
vn 0.398437 -0.083599 0.913378
vn 0.343820 -0.067890 0.936578
vn 0.343820 -0.067890 0.936578
s 1
g pCube1 pasted__pasted__pasted__group18 pasted__pasted__group20 pasted__group44 group
usemtl pasted__pasted__pasted__pasted__lambert2SG26
f 30/28/1 29/29/2 26/27/3
f 26/27/3 29/29/2 27/26/4
f 27/26/4 29/29/2 20/25/5
f 29/29/2 11/30/6 20/25/5
f 20/25/5 11/30/6 16/24/7
f 11/30/6 15/31/8 16/24/7
f 15/31/8 14/32/9 16/24/7
f 16/24/7 14/32/9 17/33/10
f 30/28/1 26/27/3 28/41/11
f 26/27/3 25/34/12 28/41/11
f 25/34/12 1/35/13 28/41/11
f 28/41/11 1/35/13 7/40/14
f 1/35/13 5/36/15 7/40/14
f 7/40/14 5/36/15 8/39/16
f 4/37/17 9/38/18 5/36/15
f 5/36/15 9/38/18 8/39/16
f 9/15/18 4/16/17 10/14/19
f 4/16/17 3/17/20 10/14/19
f 10/14/19 3/17/20 6/13/21
f 3/17/20 2/18/22 6/13/21
f 6/13/21 2/18/22 24/3/23
f 2/18/22 23/19/24 24/3/23
f 24/3/23 23/19/24 49/23/25
f 23/19/24 50/20/26 49/23/25
f 50/20/26 44/21/27 49/23/25
f 44/21/27 45/22/28 49/23/25
s 3
f 30/79/29 28/80/30 21/78/31
f 35/92/32 51/93/33 48/91/34
f 28/80/30 7/81/35 21/78/31
f 21/78/31 7/81/35 51/93/33
f 7/81/35 8/82/36 51/93/33
f 8/82/36 9/83/37 51/93/33
f 9/83/37 10/84/38 51/93/33
f 10/84/38 6/85/39 51/93/33
f 6/85/39 24/86/40 51/93/33
f 51/93/33 24/86/40 48/91/34
f 48/91/34 24/86/40 47/90/41
f 24/86/40 49/87/42 47/90/41
f 49/87/42 45/88/43 47/90/41
f 45/88/43 46/89/44 47/90/41
s 1
f 17/4/10 14/5/9 18/2/45
f 14/5/9 13/6/46 18/2/45
f 18/2/45 13/6/46 19/1/47
f 13/6/46 12/7/48 19/1/47
f 12/7/48 54/8/49 19/1/47
f 19/1/47 54/8/49 52/12/50
f 54/8/49 53/9/51 52/12/50
f 53/9/51 39/10/52 52/12/50
f 39/10/52 40/11/53 52/12/50
s 5
f 22/110/54 26/111/55 55/124/56
f 55/124/56 26/111/55 34/123/57
f 16/114/58 17/115/59 20/113/60
f 17/115/59 18/116/61 20/113/60
f 18/116/61 19/117/62 20/113/60
f 19/117/62 52/118/63 20/113/60
f 20/113/60 52/118/63 27/112/64
f 52/118/63 40/119/65 27/112/64
f 40/119/65 31/120/66 27/112/64
f 31/120/66 32/121/67 27/112/64
f 32/121/67 33/122/68 27/112/64
f 27/112/64 33/122/68 26/111/55
f 26/111/55 33/122/68 34/123/57
f 22/102/54 55/103/56 26/101/55
f 55/103/56 34/104/57 26/101/55
f 5/98/69 1/99/70 4/97/71
f 4/97/71 1/99/70 3/96/72
f 3/96/72 1/99/70 2/95/73
f 2/95/73 1/99/70 23/94/74
f 1/99/70 25/100/75 23/94/74
f 23/94/74 25/100/75 50/109/76
f 50/109/76 25/100/75 44/108/77
f 44/108/77 25/100/75 43/107/78
f 43/107/78 25/100/75 42/106/79
f 42/106/79 25/100/75 41/105/80
f 25/100/75 26/101/55 41/105/80
f 26/101/55 34/104/57 41/105/80
s 8
f 30/68/81 21/69/82 29/67/83
f 35/71/84 36/72/85 51/70/86
f 29/67/83 21/69/82 11/66/87
f 21/69/82 51/70/86 11/66/87
f 11/66/87 51/70/86 15/65/88
f 15/65/88 51/70/86 14/64/89
f 14/64/89 51/70/86 13/63/90
f 13/63/90 51/70/86 12/62/91
f 12/62/91 51/70/86 54/77/92
f 51/70/86 36/72/85 54/77/92
f 36/72/85 37/73/93 54/77/92
f 54/77/92 37/73/93 53/76/94
f 53/76/94 37/73/93 39/75/95
f 37/73/93 38/74/96 39/75/95
s 1
f 35/60/97 34/61/98 36/47/99
f 34/61/98 33/50/100 36/47/99
f 33/50/100 32/51/101 36/47/99
f 36/47/99 32/51/101 37/46/102
f 32/51/101 31/42/103 37/46/102
f 37/46/102 31/42/103 38/45/104
f 40/43/53 39/44/52 31/42/103
f 31/42/103 39/44/52 38/45/104
f 35/48/97 48/53/105 34/49/98
f 34/49/98 48/53/105 41/52/106
f 41/52/106 48/53/105 42/59/107
f 48/53/105 47/54/108 42/59/107
f 42/59/107 47/54/108 43/58/109
f 47/54/108 46/55/110 43/58/109
f 46/55/110 45/56/28 43/58/109
f 45/56/28 44/57/27 43/58/109
