# This file uses centimeters as units for non-parametric coordinates.

mtllib orange_body.mtl
g default
v -1.400000 1.400000 1.000000
v 1.400000 1.400000 1.000000
v -1.400000 4.600000 1.000000
v 1.400000 4.600000 1.000000
v -1.400000 4.600000 -1.000000
v 1.400000 4.600000 -1.000000
v -1.400000 1.400000 -1.000000
v 1.400000 1.400000 -1.000000
vt 0.031239 0.346937
vt 0.158072 0.346937
vt 0.158072 0.473770
vt 0.031239 0.473770
vt 0.300308 0.870035
vt 0.427141 0.870035
vt 0.427141 0.996868
vt 0.300308 0.996868
vt 0.787658 0.997508
vt 0.010114 0.996608
vt 0.011529 0.501799
vt 0.789073 0.502699
vt 0.127451 0.815494
vt 0.254284 0.815494
vt 0.254284 0.942327
vt 0.127451 0.942327
vt 0.823284 0.499629
vt 0.950117 0.499629
vt 0.950117 0.626462
vt 0.823284 0.626462
vt 0.778351 0.336557
vt 0.905184 0.336557
vt 0.905184 0.463390
vt 0.778351 0.463390
vn 0.000000 0.000000 1.000000
vn 0.000000 0.000000 1.000000
vn 0.000000 0.000000 1.000000
vn 0.000000 0.000000 1.000000
vn 0.000000 1.000000 0.000000
vn 0.000000 1.000000 0.000000
vn 0.000000 1.000000 0.000000
vn 0.000000 1.000000 0.000000
vn 0.000000 0.000000 -1.000000
vn 0.000000 0.000000 -1.000000
vn 0.000000 0.000000 -1.000000
vn 0.000000 0.000000 -1.000000
vn 0.000000 -1.000000 0.000000
vn 0.000000 -1.000000 0.000000
vn 0.000000 -1.000000 0.000000
vn 0.000000 -1.000000 0.000000
vn 1.000000 0.000000 0.000000
vn 1.000000 0.000000 0.000000
vn 1.000000 0.000000 0.000000
vn 1.000000 0.000000 0.000000
vn -1.000000 0.000000 0.000000
vn -1.000000 0.000000 0.000000
vn -1.000000 0.000000 0.000000
vn -1.000000 0.000000 0.000000
s off
g pink_head
usemtl initialShadingGroup
f 1/1/1 2/2/2 4/3/3 3/4/4
f 3/5/5 4/6/6 6/7/7 5/8/8
f 5/9/9 6/10/10 8/11/11 7/12/12
f 7/13/13 8/14/14 2/15/15 1/16/16
f 2/17/17 8/18/18 6/19/19 4/20/20
f 7/21/21 1/22/22 3/23/23 5/24/24
