# This file uses centimeters as units for non-parametric coordinates.

mtllib packet chips.mtl
g default
v -0.390370 2.566990 0.845157
v 0.249756 2.567206 0.847216
v -0.390321 2.772404 0.845183
v 0.249806 2.772621 0.847242
v -0.390270 2.977823 0.845209
v 0.249854 2.978039 0.847267
v -0.390215 3.183238 0.845235
v 0.249918 3.183455 0.847294
v -0.503938 3.388597 0.689584
v 0.334678 3.388884 0.692281
v -0.390872 3.183203 0.596736
v 0.249255 3.183419 0.598795
v -0.390922 2.977788 0.596710
v 0.249205 2.978005 0.598768
v -0.390970 2.772370 0.596684
v 0.249154 2.772586 0.598743
v -0.391033 2.566954 0.596658
v 0.249099 2.567171 0.598717
v -0.507682 2.361517 0.751568
v 0.338225 2.361801 0.754288
v 0.289876 2.567203 0.723097
v 0.289917 2.772618 0.723122
v 0.289969 2.978035 0.723148
v 0.290031 3.183454 0.723174
v -0.459378 2.566949 0.720687
v -0.459328 2.772365 0.720713
v -0.459276 2.977782 0.720739
v -0.459224 3.183193 0.720764
vt 0.396305 0.210466
vt 1.035313 0.210466
vt 0.968251 0.361332
vt 0.484695 0.361332
vt 0.494084 0.988211
vt 0.002119 0.988211
vt 0.968251 0.512198
vt 0.484695 0.512198
vt 0.968251 0.663064
vt 0.484695 0.663064
vt 0.968251 0.813931
vt 0.484695 0.813931
vt 1.032556 0.964797
vt 0.399062 0.964797
vt 0.023767 0.131677
vt 0.225953 -0.033664
vt 0.222435 0.233994
vt 0.224194 0.100165
vt 0.052058 0.832577
vt 0.427583 0.832577
vt 0.052058 0.676567
vt 0.427583 0.676567
vt 0.052058 0.520557
vt 0.427583 0.520556
vt 0.052058 0.364547
vt 0.427583 0.364547
vt -0.000021 0.207912
vt 0.496225 0.207912
vt 1.024583 0.074489
vt 0.822397 0.239829
vt 0.824156 0.106001
vt 0.825915 -0.027828
vt 0.622410 0.237884
vt 0.624169 0.104055
vt 0.625928 -0.029774
vt 0.422422 0.235939
vt 0.424182 0.102110
vt 0.425941 -0.031719
vt 0.222435 0.233994
vt 0.224194 0.100165
vt 0.225953 -0.033664
vt 0.023767 0.131677
vt 1.024583 0.074489
vt 0.824156 0.106001
vt 0.822397 0.239830
vt 0.825915 -0.027828
vt 0.624169 0.104055
vt 0.622410 0.237884
vt 0.625928 -0.029774
vt 0.424182 0.102110
vt 0.422423 0.235939
vt 0.425941 -0.031719
vn -0.002790 -0.413188 0.910641
vn -0.002790 -0.413188 0.910641
vn -0.003022 -0.256341 0.966582
vn -0.003015 -0.261943 0.965079
vn -0.003216 -0.000125 0.999995
vn -0.003216 -0.000125 0.999995
vn -0.003216 -0.000125 0.999995
vn -0.003216 -0.000125 0.999995
vn -0.003090 0.394055 0.919082
vn -0.003083 0.400509 0.916287
vn -0.002771 0.603066 0.797687
vn -0.002771 0.603066 0.797687
vn 0.002788 0.413187 -0.910642
vn 0.002788 0.413187 -0.910642
vn 0.003022 0.255978 -0.966678
vn 0.003017 0.260162 -0.965560
vn 0.003216 0.000125 -0.999995
vn 0.003216 0.000125 -0.999995
vn 0.003216 0.000125 -0.999995
vn 0.003216 0.000125 -0.999995
vn 0.003086 -0.396573 -0.917998
vn 0.003081 -0.400881 -0.916125
vn 0.002769 -0.603065 -0.797687
vn 0.002769 -0.603065 -0.797687
vn 0.963630 0.243537 0.110034
vn 0.950113 0.017043 -0.311441
vn 0.996569 0.074461 -0.036149
vn 0.950776 0.039948 0.307295
vn 0.950261 -0.000191 -0.311456
vn 0.999997 -0.000237 -0.002626
vn 0.951539 -0.000260 0.307528
vn 0.950260 -0.000209 -0.311458
vn 0.999997 -0.000268 -0.002629
vn 0.951540 -0.000301 0.307523
vn 0.949589 -0.037393 -0.311261
vn 0.997144 -0.068928 0.030870
vn 0.951418 -0.015939 0.307488
vn 0.966921 -0.227496 -0.115366
vn -0.949143 0.251624 0.189245
vn -0.995972 0.072774 -0.052390
vn -0.875741 0.012940 -0.482609
vn -0.873874 0.040423 0.484468
vn -0.999997 0.000254 0.002628
vn -0.875805 0.000289 -0.482666
vn -0.874585 0.000155 0.484872
vn -0.999997 0.000250 0.002626
vn -0.875802 0.000276 -0.482670
vn -0.874585 0.000162 0.484871
vn -0.996108 -0.065826 0.058620
vn -0.875174 -0.037967 -0.482316
vn -0.874530 -0.010853 0.484849
vn -0.953535 -0.236005 -0.187278
s 1
g pCube1
usemtl lambert4SG
f 19/1/1 20/2/2 2/3/3 1/4/4
f 1/4/4 2/3/3 4/7/5 3/8/6
f 3/8/6 4/7/5 6/9/7 5/10/8
f 5/10/8 6/9/7 8/11/9 7/12/10
f 7/12/10 8/11/9 10/13/11 9/14/12
s 2
f 9/5/13 10/6/14 12/19/15 11/20/16
f 11/20/16 12/19/15 14/21/17 13/22/18
f 13/22/18 14/21/17 16/23/19 15/24/20
f 15/24/20 16/23/19 18/25/21 17/26/22
f 17/26/22 18/25/21 20/27/23 19/28/24
s 3
f 20/29/25 18/30/26 21/31/27
f 20/29/25 21/31/27 2/32/28
f 21/31/27 18/30/26 16/33/29 22/34/30
f 2/32/28 21/31/27 22/34/30 4/35/31
f 22/34/30 16/33/29 14/36/32 23/37/33
f 4/35/31 22/34/30 23/37/33 6/38/34
f 23/37/33 14/36/32 12/39/35 24/40/36
f 6/38/34 23/37/33 24/40/36 8/41/37
f 24/40/36 12/39/35 10/42/38
f 8/41/37 24/40/36 10/42/38
s 4
f 19/43/39 25/44/40 17/45/41
f 19/43/39 1/46/42 25/44/40
f 17/45/41 25/44/40 26/47/43 15/48/44
f 25/44/40 1/46/42 3/49/45 26/47/43
f 15/48/44 26/47/43 27/50/46 13/51/47
f 26/47/43 3/49/45 5/52/48 27/50/46
f 13/51/47 27/50/46 28/18/49 11/17/50
f 27/50/46 5/52/48 7/16/51 28/18/49
f 11/17/50 28/18/49 9/15/52
f 28/18/49 7/16/51 9/15/52
