# This file uses centimeters as units for non-parametric coordinates.

mtllib yellow_left_leg_upper.mtl
g default
v -1.160000 1.177437 0.500000
v -0.440000 1.177437 0.500000
v -1.160000 1.200000 0.500000
v -0.440000 1.200000 0.500000
v -1.160000 1.200000 -0.500000
v -0.440000 1.200000 -0.500000
v -1.160000 1.177437 -0.500000
v -0.440000 1.177437 -0.500000
v -1.160000 1.200000 0.500000
v -0.440000 1.200000 0.500000
v -1.160000 2.400000 0.500000
v -0.440000 2.400000 0.500000
v -1.160000 2.400000 -0.500000
v -0.440000 2.400000 -0.500000
v -1.160000 1.200000 -0.500000
v -0.440000 1.200000 -0.500000
vt 0.375000 0.250000
vt 0.625000 0.250000
vt 0.625000 0.500000
vt 0.375000 0.500000
vt 0.164208 0.814717
vt 0.253896 0.814717
vt 0.253896 0.904404
vt 0.164208 0.904404
vt 0.192804 0.563240
vt 0.270761 0.563240
vt 0.270761 0.652927
vt 0.192804 0.652927
vt 0.375000 0.250000
vt 0.625000 0.250000
vt 0.625000 0.500000
vt 0.375000 0.500000
vt 0.192804 0.742614
vt 0.270761 0.742614
vt 0.270761 0.832301
vt 0.192804 0.832301
vt 0.375000 0.750000
vt 0.625000 0.750000
vt 0.625000 1.000000
vt 0.375000 1.000000
vt 0.270761 0.563240
vt 0.348718 0.563240
vt 0.348718 0.652927
vt 0.270761 0.652927
vt 0.114847 0.563240
vt 0.192804 0.563240
vt 0.192804 0.652927
vt 0.114847 0.652927
vn 0.000000 1.000000 0.000000
vn 0.000000 1.000000 0.000000
vn 0.000000 1.000000 0.000000
vn 0.000000 1.000000 0.000000
vn 0.000000 -1.000000 0.000000
vn 0.000000 -1.000000 0.000000
vn 0.000000 -1.000000 0.000000
vn 0.000000 -1.000000 0.000000
vn 0.000000 0.000000 1.000000
vn 0.000000 0.000000 1.000000
vn 0.000000 0.000000 1.000000
vn 0.000000 0.000000 1.000000
vn 0.000000 1.000000 0.000000
vn 0.000000 1.000000 0.000000
vn 0.000000 1.000000 0.000000
vn 0.000000 1.000000 0.000000
vn 0.000000 0.000000 -1.000000
vn 0.000000 0.000000 -1.000000
vn 0.000000 0.000000 -1.000000
vn 0.000000 0.000000 -1.000000
vn 0.000000 -1.000000 0.000000
vn 0.000000 -1.000000 0.000000
vn 0.000000 -1.000000 0.000000
vn 0.000000 -1.000000 0.000000
vn 1.000000 0.000000 0.000000
vn 1.000000 0.000000 0.000000
vn 1.000000 0.000000 0.000000
vn 1.000000 0.000000 0.000000
vn -1.000000 0.000000 0.000000
vn -1.000000 0.000000 0.000000
vn -1.000000 0.000000 0.000000
vn -1.000000 0.000000 0.000000
s off
g yellow:pink_left_leg
usemtl lambert2SG
f 3/1/1 4/2/2 6/3/3 5/4/4
f 7/5/5 8/6/6 2/7/7 1/8/8
f 9/9/9 10/10/10 12/11/11 11/12/12
f 11/13/13 12/14/14 14/15/15 13/16/16
f 13/17/17 14/18/18 16/19/19 15/20/20
f 15/21/21 16/22/22 10/23/23 9/24/24
f 10/25/25 16/26/26 14/27/27 12/28/28
f 15/29/29 9/30/30 11/31/31 13/32/32
