# This file uses centimeters as units for non-parametric coordinates.

mtllib yellow_right_arm.mtl
g default
v 0.683590 3.319615 0.500000
v 1.283590 2.280385 0.500000
v 1.376410 3.719615 0.500000
v 1.976410 2.680385 0.500000
v 1.376410 3.719615 -0.500000
v 1.976410 2.680385 -0.500000
v 0.683590 3.319615 -0.500000
v 1.283590 2.280385 -0.500000
vt 0.795775 0.324726
vt 0.897192 0.324726
vt 0.897192 0.426144
vt 0.795775 0.426144
vt 0.897192 0.527561
vt 0.795775 0.527561
vt 0.897192 0.628979
vt 0.795775 0.628979
vt 0.897192 0.730396
vt 0.795775 0.730396
vt 0.998610 0.324726
vt 0.998610 0.426144
vt 0.694358 0.324726
vt 0.694358 0.426144
vn 0.000000 0.000000 1.000000
vn 0.000000 0.000000 1.000000
vn 0.000000 0.000000 1.000000
vn 0.000000 0.000000 1.000000
vn 0.866025 0.500000 0.000000
vn 0.866025 0.500000 0.000000
vn 0.866025 0.500000 0.000000
vn 0.866025 0.500000 0.000000
vn 0.000000 0.000000 -1.000000
vn 0.000000 0.000000 -1.000000
vn 0.000000 0.000000 -1.000000
vn 0.000000 0.000000 -1.000000
vn -0.866025 -0.500000 0.000000
vn -0.866025 -0.500000 0.000000
vn -0.866025 -0.500000 0.000000
vn -0.866025 -0.500000 0.000000
vn 0.500000 -0.866025 0.000000
vn 0.500000 -0.866025 0.000000
vn 0.500000 -0.866025 0.000000
vn 0.500000 -0.866025 0.000000
vn -0.500000 0.866025 0.000000
vn -0.500000 0.866025 0.000000
vn -0.500000 0.866025 0.000000
vn -0.500000 0.866025 0.000000
s off
g yellow:pCube3
usemtl lambert2SG
f 1/1/1 2/2/2 4/3/3 3/4/4
f 3/4/5 4/3/6 6/5/7 5/6/8
f 5/6/9 6/5/10 8/7/11 7/8/12
f 7/8/13 8/7/14 2/9/15 1/10/16
f 2/2/17 8/11/18 6/12/19 4/3/20
f 7/13/21 1/1/22 3/4/23 5/14/24
