# This file uses centimeters as units for non-parametric coordinates.

mtllib yellow_left_leg_lower.mtl
g default
v -1.160000 0.000000 0.500000
v -0.440000 0.000000 0.500000
v -1.160000 1.200000 0.500000
v -0.440000 1.200000 0.500000
v -1.160000 1.200000 -0.500000
v -0.440000 1.200000 -0.500000
v -1.160000 0.000000 -0.500000
v -0.440000 0.000000 -0.500000
v -1.160000 1.200000 0.500000
v -0.440000 1.200000 0.500000
v -1.160000 1.210444 0.500000
v -0.440000 1.210444 0.500000
v -1.160000 1.210444 -0.500000
v -0.440000 1.210444 -0.500000
v -1.160000 1.200000 -0.500000
v -0.440000 1.200000 -0.500000
vt 0.164208 0.545656
vt 0.253896 0.545656
vt 0.253896 0.635343
vt 0.164208 0.635343
vt 0.375000 0.250000
vt 0.625000 0.250000
vt 0.625000 0.500000
vt 0.375000 0.500000
vt 0.164208 0.725030
vt 0.253896 0.725030
vt 0.253896 0.814717
vt 0.164208 0.814717
vt 0.164208 0.814717
vt 0.253896 0.814717
vt 0.253896 0.904404
vt 0.164208 0.904404
vt 0.253896 0.545656
vt 0.343583 0.545656
vt 0.343583 0.635343
vt 0.253896 0.635343
vt 0.074521 0.545656
vt 0.164208 0.545656
vt 0.164208 0.635343
vt 0.074521 0.635343
vt 0.375000 0.250000
vt 0.625000 0.250000
vt 0.625000 0.500000
vt 0.375000 0.500000
vt 0.375000 0.750000
vt 0.625000 0.750000
vt 0.625000 1.000000
vt 0.375000 1.000000
vn 0.000000 0.000000 1.000000
vn 0.000000 0.000000 1.000000
vn 0.000000 0.000000 1.000000
vn 0.000000 0.000000 1.000000
vn 0.000000 1.000000 0.000000
vn 0.000000 1.000000 0.000000
vn 0.000000 1.000000 0.000000
vn 0.000000 1.000000 0.000000
vn 0.000000 0.000000 -1.000000
vn 0.000000 0.000000 -1.000000
vn 0.000000 0.000000 -1.000000
vn 0.000000 0.000000 -1.000000
vn 0.000000 -1.000000 0.000000
vn 0.000000 -1.000000 0.000000
vn 0.000000 -1.000000 0.000000
vn 0.000000 -1.000000 0.000000
vn 1.000000 0.000000 0.000000
vn 1.000000 0.000000 0.000000
vn 1.000000 0.000000 0.000000
vn 1.000000 0.000000 0.000000
vn -1.000000 0.000000 0.000000
vn -1.000000 0.000000 0.000000
vn -1.000000 0.000000 0.000000
vn -1.000000 0.000000 0.000000
vn 0.000000 1.000000 0.000000
vn 0.000000 1.000000 0.000000
vn 0.000000 1.000000 0.000000
vn 0.000000 1.000000 0.000000
vn 0.000000 -1.000000 0.000000
vn 0.000000 -1.000000 0.000000
vn 0.000000 -1.000000 0.000000
vn 0.000000 -1.000000 0.000000
s off
g yellow:pink_left_leg
usemtl lambert2SG
f 1/1/1 2/2/2 4/3/3 3/4/4
f 3/5/5 4/6/6 6/7/7 5/8/8
f 5/9/9 6/10/10 8/11/11 7/12/12
f 7/13/13 8/14/14 2/15/15 1/16/16
f 2/17/17 8/18/18 6/19/19 4/20/20
f 7/21/21 1/22/22 3/23/23 5/24/24
f 11/25/25 12/26/26 14/27/27 13/28/28
f 15/29/29 16/30/30 10/31/31 9/32/32
