# This file uses centimeters as units for non-parametric coordinates.

mtllib red_body.mtl
g default
v -1.400000 1.400000 1.000000
v 1.400000 1.400000 1.000000
v -1.400000 4.600000 1.000000
v 1.400000 4.600000 1.000000
v -1.400000 4.600000 -1.000000
v 1.400000 4.600000 -1.000000
v -1.400000 1.400000 -1.000000
v 1.400000 1.400000 -1.000000
vt 0.378783 0.810090
vt 0.505616 0.810090
vt 0.505616 0.936922
vt 0.378783 0.936922
vt 0.127451 0.561829
vt 0.254284 0.561829
vt 0.254284 0.688662
vt 0.127451 0.688662
vt 0.554396 0.551601
vt 0.016108 0.550601
vt 0.017087 0.001297
vt 0.555376 0.002296
vt 0.127451 0.815494
vt 0.254284 0.815494
vt 0.254284 0.942327
vt 0.127451 0.942327
vt 0.802085 0.496368
vt 0.928918 0.496368
vt 0.928918 0.623201
vt 0.802085 0.623201
vt 0.586500 0.492560
vt 0.713332 0.492560
vt 0.713332 0.619393
vt 0.586500 0.619393
vn 0.000000 0.000000 1.000000
vn 0.000000 0.000000 1.000000
vn 0.000000 0.000000 1.000000
vn 0.000000 0.000000 1.000000
vn 0.000000 1.000000 0.000000
vn 0.000000 1.000000 0.000000
vn 0.000000 1.000000 0.000000
vn 0.000000 1.000000 0.000000
vn 0.000000 0.000000 -1.000000
vn 0.000000 0.000000 -1.000000
vn 0.000000 0.000000 -1.000000
vn 0.000000 0.000000 -1.000000
vn 0.000000 -1.000000 0.000000
vn 0.000000 -1.000000 0.000000
vn 0.000000 -1.000000 0.000000
vn 0.000000 -1.000000 0.000000
vn 1.000000 0.000000 0.000000
vn 1.000000 0.000000 0.000000
vn 1.000000 0.000000 0.000000
vn 1.000000 0.000000 0.000000
vn -1.000000 0.000000 0.000000
vn -1.000000 0.000000 0.000000
vn -1.000000 0.000000 0.000000
vn -1.000000 0.000000 0.000000
s off
g red:pink_head
usemtl lambert2SG
f 1/1/1 2/2/2 4/3/3 3/4/4
f 3/5/5 4/6/6 6/7/7 5/8/8
f 5/9/9 6/10/10 8/11/11 7/12/12
f 7/13/13 8/14/14 2/15/15 1/16/16
f 2/17/17 8/18/18 6/19/19 4/20/20
f 7/21/21 1/22/22 3/23/23 5/24/24
