# This file uses centimeters as units for non-parametric coordinates.

mtllib red_right_leg_upper.mtl
g default
v 0.440000 1.171659 0.500000
v 1.160000 1.171659 0.500000
v 0.440000 1.200000 0.500000
v 1.160000 1.200000 0.500000
v 0.440000 1.200000 -0.500000
v 1.160000 1.200000 -0.500000
v 0.440000 1.171659 -0.500000
v 1.160000 1.171659 -0.500000
v 0.440000 1.200000 0.500000
v 1.160000 1.200000 0.500000
v 0.440000 2.400000 0.500000
v 1.160000 2.400000 0.500000
v 0.440000 2.400000 -0.500000
v 1.160000 2.400000 -0.500000
v 0.440000 1.200000 -0.500000
v 1.160000 1.200000 -0.500000
vt 0.375000 0.250000
vt 0.625000 0.250000
vt 0.625000 0.500000
vt 0.375000 0.500000
vt 0.129453 0.743299
vt 0.225006 0.743299
vt 0.225006 0.838852
vt 0.129453 0.838852
vt 0.132044 0.455383
vt 0.231507 0.455383
vt 0.231507 0.554845
vt 0.132044 0.554845
vt 0.375000 0.250000
vt 0.625000 0.250000
vt 0.625000 0.500000
vt 0.375000 0.500000
vt 0.132044 0.654307
vt 0.231507 0.654307
vt 0.231507 0.753770
vt 0.132044 0.753770
vt 0.375000 0.750000
vt 0.625000 0.750000
vt 0.625000 1.000000
vt 0.375000 1.000000
vt 0.231507 0.455383
vt 0.330969 0.455383
vt 0.330969 0.554845
vt 0.231507 0.554845
vt 0.032582 0.455383
vt 0.132044 0.455383
vt 0.132044 0.554845
vt 0.032582 0.554845
vn 0.000000 1.000000 0.000000
vn 0.000000 1.000000 0.000000
vn 0.000000 1.000000 0.000000
vn 0.000000 1.000000 0.000000
vn 0.000000 -1.000000 0.000000
vn 0.000000 -1.000000 0.000000
vn 0.000000 -1.000000 0.000000
vn 0.000000 -1.000000 0.000000
vn 0.000000 0.000000 1.000000
vn 0.000000 0.000000 1.000000
vn 0.000000 0.000000 1.000000
vn 0.000000 0.000000 1.000000
vn 0.000000 1.000000 0.000000
vn 0.000000 1.000000 0.000000
vn 0.000000 1.000000 0.000000
vn 0.000000 1.000000 0.000000
vn 0.000000 0.000000 -1.000000
vn 0.000000 0.000000 -1.000000
vn 0.000000 0.000000 -1.000000
vn 0.000000 0.000000 -1.000000
vn 0.000000 -1.000000 0.000000
vn 0.000000 -1.000000 0.000000
vn 0.000000 -1.000000 0.000000
vn 0.000000 -1.000000 0.000000
vn 1.000000 0.000000 0.000000
vn 1.000000 0.000000 0.000000
vn 1.000000 0.000000 0.000000
vn 1.000000 0.000000 0.000000
vn -1.000000 0.000000 0.000000
vn -1.000000 0.000000 0.000000
vn -1.000000 0.000000 0.000000
vn -1.000000 0.000000 0.000000
s off
g red2:pink_right_leg
usemtl lambert2SG
f 3/1/1 4/2/2 6/3/3 5/4/4
f 7/5/5 8/6/6 2/7/7 1/8/8
f 9/9/9 10/10/10 12/11/11 11/12/12
f 11/13/13 12/14/14 14/15/15 13/16/16
f 13/17/17 14/18/18 16/19/19 15/20/20
f 15/21/21 16/22/22 10/23/23 9/24/24
f 10/25/25 16/26/26 14/27/27 12/28/28
f 15/29/29 9/30/30 11/31/31 13/32/32
